<svg width="39" height="40" viewBox="0 0 39 40" fill="none" xmlns="http://www.w3.org/2000/svg">
<g opacity="0.78">
<path d="M25.4781 16.7037H23.0919V19.0899H13.5469V16.7037H11.1607V14.3174H8.77441V4.77248H11.1607V2.38624H13.5469V0H15.9331V2.38624H20.7056V0H23.0919V2.38624H25.4781V4.77248H27.8643V14.3174H25.4781V16.7037ZM13.5469 9.54496V11.9312H15.9331V9.54496H13.5469ZM20.7056 9.54496V11.9312H23.0919V9.54496H20.7056Z" fill="#FF1F7D"/>
<path d="M25.4781 22.7736H23.0919V20.3873H13.5469V22.7736H11.1607V25.1598H8.77441V34.7048H11.1607V37.091H13.5469V39.4773H15.9331V37.091H20.7056V39.4773H23.0919V37.091H25.4781V34.7048H27.8643V25.1598H25.4781V22.7736ZM13.5469 29.9323V27.5461H15.9331V29.9323H13.5469ZM20.7056 29.9323V27.5461H23.0919V29.9323H20.7056Z" fill="#FF1F7D"/>
<path d="M25.4781 4.905H23.0919V2.51876H13.5469V4.905H11.1607V7.29124H8.77441V16.8362H11.1607V19.2224H13.5469V21.6087H15.9331V19.2224H20.7056V21.6087H23.0919V19.2224H25.4781V16.8362H27.8643V7.29124H25.4781V4.905ZM13.5469 12.0637V9.67748H15.9331V12.0637H13.5469ZM20.7056 12.0637V9.67748H23.0919V12.0637H20.7056Z" fill="#1FFFF2"/>
<path d="M25.4781 31.5514H23.0919V33.9376H13.5469V31.5514H11.1607V29.1652H8.77441V19.6202H11.1607V17.234H13.5469V14.8477H15.9331V17.234H20.7056V14.8477H23.0919V17.234H25.4781V19.6202H27.8643V29.1652H25.4781V31.5514ZM13.5469 24.3927V26.7789H15.9331V24.3927H13.5469ZM20.7056 24.3927V26.7789H23.0919V24.3927H20.7056Z" fill="#FF1F7D"/>
<path d="M30.5156 19.6201V22.6692H33.5647V25.7183H36.6138V19.6201H30.5156Z" fill="#FF1F7D"/>
<path d="M6.09863 25.7184V22.6693H3.04955V19.6202H0.000464439V25.7184H6.09863Z" fill="#FF1F7D"/>
<path d="M39 29.1652L39 27.5743L37.4092 27.5743L37.4092 29.1652L39 29.1652ZM37.4092 30.756L37.4092 29.1652L35.8183 29.1652L35.8183 30.756L37.4092 30.756ZM35.8183 32.3468L35.8183 30.756L34.2275 30.756L34.2275 32.3468L35.8183 32.3468ZM34.2275 30.756L34.2275 29.1652L32.6367 29.1652L32.6367 30.756L34.2275 30.756ZM32.6367 29.1652L32.6367 27.5743L31.0459 27.5743L31.0459 29.1652L32.6367 29.1652Z" fill="#1FFFF2"/>
</g>
</svg>
