<svg width="316" height="461" viewBox="0 0 316 461" fill="none" xmlns="http://www.w3.org/2000/svg">
<g opacity="0.78">
<path d="M211.136 285.49H192.761V303.846H119.261V285.49H100.887V267.134H82.5117V193.712H100.887V175.356H119.261V157H137.636V175.356H174.386V157H192.761V175.356H211.136V193.712H229.511V267.134H211.136V285.49ZM119.261 230.423V248.779H137.636V230.423H119.261ZM174.386 230.423V248.779H192.761V230.423H174.386Z" fill="#FF1F7D"/>
<path d="M211.136 332.181H192.761V313.825H119.261V332.181H100.887V350.537H82.5117V423.959H100.887V442.315H119.261V460.671H137.636V442.315H174.386V460.671H192.761V442.315H211.136V423.959H229.511V350.537H211.136V332.181ZM119.261 387.248V368.892H137.636V387.248H119.261ZM174.386 387.248V368.892H192.761V387.248H174.386Z" fill="#FF1F7D"/>
<path d="M211.136 194.73H192.761V176.375H119.261V194.73H100.887V213.086H82.5117V286.509H100.887V304.864H119.261V323.22H137.636V304.864H174.386V323.22H192.761V304.864H211.136V286.509H229.511V213.086H211.136V194.73ZM119.261 249.797V231.442H137.636V249.797H119.261ZM174.386 249.797V231.442H192.761V249.797H174.386Z" fill="#1FFFF2"/>
<path d="M211.136 399.703H192.761V418.059H119.261V399.703H100.887V381.347H82.5117V307.924H100.887V289.569H119.261V271.213H137.636V289.569H174.386V271.213H192.761V289.569H211.136V307.924H229.511V381.347H211.136V399.703ZM119.261 344.636V362.992H137.636V344.636H119.261ZM174.386 344.636V362.992H192.761V344.636H174.386Z" fill="#FF1F7D"/>
<path d="M249.927 338.909V315.455H273.406V292H296.885V338.909H249.927Z" fill="#FF1F7D"/>
<path d="M61.9043 338.909V315.455H38.4253V292H14.9464V338.909H61.9043Z" fill="#FF1F7D"/>
</g>
<g opacity="0.78">
<path d="M246.606 119.143H263.767V136.286H246.606V119.143Z" fill="#1FFFF2"/>
<path d="M263.767 102H280.928V119.143H263.767V102Z" fill="#1FFFF2"/>
<path d="M280.928 102H298.089V119.143H280.928V102Z" fill="#1FFFF2"/>
<path d="M298.089 119.143H315.249V136.286H298.089V119.143Z" fill="#1FFFF2"/>
<path d="M298.089 136.286H315.249V153.429H298.089V136.286Z" fill="#1FFFF2"/>
<path d="M280.928 153.429H298.089V170.572H280.928V153.429Z" fill="#1FFFF2"/>
<path d="M263.767 153.429H280.928V170.572H263.767V153.429Z" fill="#1FFFF2"/>
<path d="M263.767 170.572H280.928V187.715H263.767V170.572Z" fill="#1FFFF2"/>
<path d="M263.767 204.857H280.928V222H263.767V204.857Z" fill="#1FFFF2"/>
</g>
<g opacity="0.6">
<path d="M235.562 104.06L228.965 102.292L227.199 108.882L233.796 110.65L235.562 104.06Z" fill="#1FFFF2"/>
<path d="M230.731 95.7018L224.134 93.934L222.368 100.524L228.965 102.292L230.731 95.7018Z" fill="#1FFFF2"/>
<path d="M224.134 93.934L217.536 92.1663L215.77 98.7567L222.368 100.524L224.134 93.934Z" fill="#1FFFF2"/>
<path d="M215.77 98.7567L209.173 96.9889L207.407 103.579L214.005 105.347L215.77 98.7567Z" fill="#1FFFF2"/>
<path d="M214.005 105.347L207.407 103.579L205.641 110.17L212.239 111.937L214.005 105.347Z" fill="#1FFFF2"/>
<path d="M218.836 113.705L212.239 111.937L210.473 118.528L217.07 120.296L218.836 113.705Z" fill="#1FFFF2"/>
<path d="M225.433 115.473L218.836 113.705L217.07 120.296L223.667 122.063L225.433 115.473Z" fill="#1FFFF2"/>
<path d="M223.667 122.063L217.07 120.296L215.304 126.886L221.901 128.654L223.667 122.063Z" fill="#1FFFF2"/>
<path d="M220.136 135.244L213.538 133.476L211.772 140.067L218.37 141.834L220.136 135.244Z" fill="#1FFFF2"/>
</g>
<g opacity="0.3">
<path d="M89.7523 104.661L96.3502 102.893L98.1181 109.482L91.5202 111.25L89.7523 104.661Z" fill="#1FFFF2"/>
<path d="M94.5823 96.3036L101.18 94.5357L102.948 101.125L96.3502 102.893L94.5823 96.3036Z" fill="#1FFFF2"/>
<path d="M101.18 94.5357L107.778 92.7678L109.546 99.357L102.948 101.125L101.18 94.5357Z" fill="#1FFFF2"/>
<path d="M109.546 99.357L116.144 97.5891L117.912 104.178L111.314 105.946L109.546 99.357Z" fill="#1FFFF2"/>
<path d="M111.314 105.946L117.912 104.178L119.68 110.767L113.082 112.535L111.314 105.946Z" fill="#1FFFF2"/>
<path d="M106.484 114.303L113.082 112.535L114.85 119.124L108.252 120.892L106.484 114.303Z" fill="#1FFFF2"/>
<path d="M99.886 116.071L106.484 114.303L108.252 120.892L101.654 122.66L99.886 116.071Z" fill="#1FFFF2"/>
<path d="M101.654 122.66L108.252 120.892L110.02 127.481L103.422 129.249L101.654 122.66Z" fill="#1FFFF2"/>
<path d="M105.19 135.838L111.788 134.071L113.556 140.66L106.958 142.428L105.19 135.838Z" fill="#1FFFF2"/>
</g>
<g opacity="0.78">
<path d="M71.3317 80.7169L54.7557 85.1602L59.1908 101.719L75.7669 97.2757L71.3317 80.7169Z" fill="#1FFFF2"/>
<path d="M50.3205 68.6015L33.7445 73.0447L38.1797 89.6034L54.7557 85.1602L50.3205 68.6015Z" fill="#1FFFF2"/>
<path d="M33.7445 73.0447L17.1685 77.4879L21.6036 94.0467L38.1797 89.6034L33.7445 73.0447Z" fill="#1FFFF2"/>
<path d="M21.6036 94.0467L5.02763 98.4899L9.46282 115.049L26.0388 110.605L21.6036 94.0467Z" fill="#1FFFF2"/>
<path d="M26.0388 110.605L9.46282 115.049L13.898 131.607L30.474 127.164L26.0388 110.605Z" fill="#1FFFF2"/>
<path d="M47.05 122.721L30.474 127.164L34.9092 143.723L51.4852 139.28L47.05 122.721Z" fill="#1FFFF2"/>
<path d="M63.626 118.278L47.05 122.721L51.4852 139.28L68.0612 134.836L63.626 118.278Z" fill="#1FFFF2"/>
<path d="M68.0612 134.836L51.4852 139.28L55.9204 155.838L72.4964 151.395L68.0612 134.836Z" fill="#1FFFF2"/>
<path d="M76.9316 167.954L60.3556 172.397L64.7908 188.956L81.3668 184.513L76.9316 167.954Z" fill="#1FFFF2"/>
</g>
<g opacity="0.78">
<path d="M153.622 16.5587L170.198 21.0003L165.761 37.559L149.185 33.1175L153.622 16.5587Z" fill="#FF1F7D"/>
<path d="M174.635 4.44153L191.211 8.88306L186.774 25.4418L170.198 21.0003L174.635 4.44153Z" fill="#FF1F7D"/>
<path d="M191.211 8.88306L207.787 13.3246L203.35 29.8833L186.774 25.4418L191.211 8.88306Z" fill="#FF1F7D"/>
<path d="M203.35 29.8833L219.926 34.3248L215.489 50.8836L198.913 46.442L203.35 29.8833Z" fill="#FF1F7D"/>
<path d="M198.913 46.442L215.489 50.8836L211.052 67.4423L194.476 63.0008L198.913 46.442Z" fill="#FF1F7D"/>
<path d="M177.9 58.5592L194.476 63.0008L190.039 79.5595L173.463 75.118L177.9 58.5592Z" fill="#FF1F7D"/>
<path d="M161.324 54.1177L177.9 58.5592L173.463 75.118L156.887 70.6764L161.324 54.1177Z" fill="#FF1F7D"/>
<path d="M156.887 70.6764L173.463 75.118L169.026 91.6767L152.45 87.2352L156.887 70.6764Z" fill="#FF1F7D"/>
<path d="M148.013 103.794L164.589 108.235L160.152 124.794L143.576 120.353L148.013 103.794Z" fill="#FF1F7D"/>
</g>
<rect opacity="0.9" x="109.992" y="207.282" width="32" height="12" transform="rotate(-15 109.992 207.282)" fill="#C71B64"/>
<rect x="163" y="307" width="76" height="12" transform="rotate(90 163 307)" fill="#9E1850"/>
<rect opacity="0.9" x="170.098" y="199" width="32" height="12" transform="rotate(15 170.098 199)" fill="#C71A64"/>
</svg>
