<svg width="453" height="144" viewBox="0 0 453 144" fill="none" xmlns="http://www.w3.org/2000/svg">
<g filter="url(#filter0_dddddd_719_620)">
<path d="M90.6611 68.8979C88.2153 68.8979 86.3058 68.6189 84.9327 68.0611C83.6025 67.4604 82.6585 66.5378 82.1007 65.2935C81.5858 64.0062 81.3283 62.3756 81.3283 60.4018V54.9952L86.7349 55.5745V59.1145C86.7349 60.9596 87.0352 62.3113 87.636 63.1695C88.2367 64.0276 89.2022 64.4567 90.5324 64.4567H91.7553C93.1284 64.4567 94.0938 64.0062 94.6517 63.1051C95.2524 62.204 95.5528 60.8953 95.5528 59.1789V55.8963C95.5528 54.3087 95.3597 53.1287 94.9735 52.3563C94.6302 51.541 94.1368 51.0046 93.4931 50.7472C92.8924 50.4468 92.1415 50.2966 91.2404 50.2966H85.8981V46.5635H90.468C91.3691 46.5635 92.2058 46.4133 92.9782 46.113C93.7506 45.8126 94.3728 45.2119 94.8448 44.3108C95.3168 43.4097 95.5528 42.1009 95.5528 40.3846V37.4238C95.5528 35.7074 95.2524 34.5489 94.6517 33.9481C94.0938 33.3045 93.1927 32.9827 91.9484 32.9827H90.3393C89.4382 32.9827 88.7087 33.1758 88.1509 33.562C87.636 33.9481 87.2712 34.4845 87.0567 35.1711C86.8422 35.8576 86.7349 36.6085 86.7349 37.4238V42.2511L81.3283 41.2857V37.2307C81.3283 34.3987 82.0578 32.3176 83.5167 30.9874C85.0185 29.6143 87.0996 28.9277 89.76 28.9277H92.7207C94.3942 28.9277 95.8317 29.1637 97.0331 29.6357C98.2775 30.1078 99.243 30.9659 99.9295 32.2103C100.616 33.4547 100.959 35.2354 100.959 37.5525V39.9984C100.959 41.3715 100.723 42.6158 100.251 43.7315C99.7793 44.8042 99.1572 45.7053 98.3848 46.4348C97.6553 47.1642 96.9044 47.7221 96.132 48.1083C95.3597 48.4515 94.6517 48.6232 94.008 48.6232V48.6875C94.6517 48.6875 95.3597 48.8163 96.132 49.0737C96.9473 49.2883 97.7197 49.6744 98.4492 50.2323C99.1786 50.7472 99.7793 51.4552 100.251 52.3563C100.723 53.2145 100.959 54.2872 100.959 55.5745V60.3374C100.959 63.2982 100.166 65.4651 98.5779 66.8382C96.9902 68.2113 94.8233 68.8979 92.0771 68.8979H90.6611ZM267.749 69.2197C265.861 69.1768 264.145 69.0266 262.6 68.7691C261.056 68.5117 259.811 68.0182 258.867 67.2888C257.966 66.5164 257.516 65.4437 257.516 64.0706V55.317L263.051 54.6734V61.8178C263.051 62.7618 263.351 63.4913 263.952 64.0062C264.596 64.5211 265.754 64.7786 267.428 64.7786C268.543 64.7786 269.401 64.6498 270.002 64.3924C270.603 64.1349 271.011 63.7487 271.225 63.2338C271.44 62.676 271.547 61.9894 271.547 61.1742V56.2181C271.547 54.8879 271.225 53.7723 270.581 52.8712C269.981 51.9701 268.972 51.305 267.556 50.8759L262.858 49.5243C260.97 48.9235 259.597 48.1726 258.738 47.2715C257.923 46.3275 257.516 44.8471 257.516 42.8304V34.978C257.516 33.1329 257.966 31.7598 258.867 30.8587C259.768 29.9576 260.97 29.3568 262.472 29.0565C264.016 28.7561 265.754 28.6059 267.685 28.6059C269.487 28.6059 271.096 28.7561 272.512 29.0565C273.928 29.3568 275.044 29.8932 275.859 30.6656C276.675 31.395 277.082 32.4249 277.082 33.7551V42.5086L271.547 43.3453V36.394C271.547 35.0209 271.268 34.0983 270.71 33.6263C270.152 33.1543 269.058 32.9183 267.428 32.9183C265.84 32.9183 264.703 33.2187 264.016 33.8194C263.373 34.3772 263.051 35.4714 263.051 37.102V41.4787C263.051 42.5944 263.33 43.5599 263.888 44.3751C264.488 45.1904 265.346 45.7697 266.462 46.113L271.483 47.6577C273.499 48.2584 274.937 49.0737 275.795 50.1035C276.653 51.0905 277.082 52.5708 277.082 54.5447V62.6545C277.082 64.4996 276.675 65.8942 275.859 66.8382C275.087 67.7393 273.993 68.3615 272.577 68.7048C271.204 69.0051 269.595 69.1768 267.749 69.2197ZM287.193 33.3045H280.242V28.9277H299.744V33.3045H292.729V68.8335H287.193V33.3045ZM312.625 69.1553C309.321 69.1553 306.854 68.5546 305.223 67.3531C303.636 66.1517 302.842 64.4782 302.842 62.3327V35.1067C302.842 33.1329 303.593 31.5238 305.095 30.2794C306.639 28.9921 309.15 28.3699 312.625 28.4128C316.144 28.4557 318.654 29.0994 320.156 30.3438C321.701 31.5452 322.473 33.1543 322.473 35.1711V62.3327C322.473 64.4353 321.679 66.1087 320.092 67.3531C318.504 68.5546 316.015 69.1553 312.625 69.1553ZM312.625 64.5855C314.213 64.5855 315.35 64.2636 316.037 63.62C316.723 62.9335 317.066 62.0324 317.066 60.9167V36.5227C317.066 35.45 316.745 34.5918 316.101 33.9481C315.5 33.2616 314.32 32.9183 312.561 32.9183C310.93 32.9183 309.793 33.2616 309.15 33.9481C308.549 34.5918 308.249 35.4285 308.249 36.4583V60.9167C308.249 62.0753 308.592 62.9764 309.278 63.62C309.965 64.2636 311.081 64.5855 312.625 64.5855ZM327.806 28.9277H341.516C343.361 28.9277 344.712 29.1637 345.571 29.6357C346.472 30.0648 347.051 30.7514 347.308 31.6954C347.609 32.5965 347.759 33.7336 347.759 35.1067V43.0235C347.759 44.5682 347.63 46.0271 347.373 47.4002C347.115 48.7304 346.45 49.8246 345.378 50.6828C344.305 51.4981 342.546 51.9057 340.1 51.9057H333.341V68.8335H327.806V28.9277ZM344.412 69.9277L337.139 51.5195L340.936 51.3265L342.481 51.777L342.739 52.1632L349.561 67.9324L344.412 69.9277ZM338.362 47.529C339.649 47.529 340.615 47.1857 341.258 46.4991C341.902 45.8126 342.224 44.6326 342.224 42.9591V37.5525C342.224 35.8362 341.988 34.6991 341.516 34.1412C341.044 33.5834 340.164 33.3045 338.877 33.3045H333.341V47.529H338.362ZM353.326 28.9277H372.249V33.3045H358.861V44.5682H371.026L370.318 48.8806H358.861V64.5211H372.249V68.8335H353.326V28.9277Z" fill="#1FFFF2"/>
<path d="M125.76 69.1553C123.572 69.1553 121.727 68.9408 120.225 68.5117C118.766 68.0397 117.65 67.3102 116.878 66.3233C116.148 65.3364 115.784 64.0491 115.784 62.4614V35.5572C115.784 32.854 116.62 31.0303 118.294 30.0863C119.967 29.0994 122.435 28.6059 125.696 28.6059C128.828 28.6059 131.231 29.0994 132.905 30.0863C134.578 31.0732 135.415 32.9183 135.415 35.6216V41.8649L129.879 42.1868V36.6514C129.879 35.1925 129.536 34.2485 128.85 33.8194C128.206 33.3474 127.176 33.1114 125.76 33.1114C124.344 33.1114 123.25 33.3474 122.478 33.8194C121.705 34.2485 121.319 35.1711 121.319 36.5871V61.6247C121.319 62.4829 121.491 63.1265 121.834 63.5556C122.22 63.9418 122.735 64.2207 123.379 64.3924C124.065 64.5211 124.881 64.5855 125.825 64.5855C126.726 64.5855 127.477 64.5211 128.077 64.3924C128.721 64.2207 129.214 63.9418 129.558 63.5556C129.901 63.1265 130.073 62.4829 130.073 61.6247V52.0345H124.795L125.181 47.4002H135.415V62.4614C135.415 64.0491 135.029 65.3364 134.256 66.3233C133.527 67.3102 132.433 68.0397 130.974 68.5117C129.558 68.9408 127.82 69.1553 125.76 69.1553ZM137.744 68.8335L146.111 28.9277H152.741L160.979 68.8335H155.251L153.449 59.8225L154.414 60.7236H144.18L145.017 59.8225L143.344 68.8335H137.744ZM145.21 56.9261L144.695 56.2825H154.092L153.32 56.9261L149.844 36.2653L149.716 35.3642H149.008L148.879 36.2653L145.21 56.9261ZM164.759 68.8335V28.9277H171.774L179.691 56.0894L179.756 56.4112H179.82L179.884 56.0894L187.801 28.9277H194.817V68.8335H189.281V40.642L189.217 40.5776L189.153 41.6718L182.008 64.0706H177.567L170.423 41.8649V40.8351L170.294 40.7707V68.8335H164.759ZM200.649 28.9277H219.572V33.3045H206.185V44.5682H218.349L217.641 48.8806H206.185V64.5211H219.572V68.8335H200.649V28.9277ZM233.556 69.2197C231.668 69.1768 229.952 69.0266 228.407 68.7691C226.862 68.5117 225.618 68.0182 224.674 67.2888C223.773 66.5164 223.322 65.4437 223.322 64.0706V55.317L228.857 54.6734V61.8178C228.857 62.7618 229.158 63.4913 229.758 64.0062C230.402 64.5211 231.561 64.7786 233.234 64.7786C234.35 64.7786 235.208 64.6498 235.809 64.3924C236.409 64.1349 236.817 63.7487 237.032 63.2338C237.246 62.676 237.353 61.9894 237.353 61.1742V56.2181C237.353 54.8879 237.032 53.7723 236.388 52.8712C235.787 51.9701 234.779 51.305 233.363 50.8759L228.664 49.5243C226.776 48.9235 225.403 48.1726 224.545 47.2715C223.73 46.3275 223.322 44.8471 223.322 42.8304V34.978C223.322 33.1329 223.773 31.7598 224.674 30.8587C225.575 29.9576 226.776 29.3568 228.278 29.0565C229.823 28.7561 231.561 28.6059 233.492 28.6059C235.294 28.6059 236.903 28.7561 238.319 29.0565C239.735 29.3568 240.851 29.8932 241.666 30.6656C242.481 31.395 242.889 32.4249 242.889 33.7551V42.5086L237.353 43.3453V36.394C237.353 35.0209 237.075 34.0983 236.517 33.6263C235.959 33.1543 234.865 32.9183 233.234 32.9183C231.647 32.9183 230.509 33.2187 229.823 33.8194C229.179 34.3772 228.857 35.4714 228.857 37.102V41.4787C228.857 42.5944 229.136 43.5599 229.694 44.3751C230.295 45.1904 231.153 45.7697 232.269 46.113L237.289 47.6577C239.306 48.2584 240.743 49.0737 241.601 50.1035C242.46 51.0905 242.889 52.5708 242.889 54.5447V62.6545C242.889 64.4996 242.481 65.8942 241.666 66.8382C240.893 67.7393 239.799 68.3615 238.383 68.7048C237.01 69.0051 235.401 69.1768 233.556 69.2197Z" fill="#FF1F7D"/>
</g>
<defs>
<filter id="filter0_dddddd_719_620" x="0.872986" y="-59.1465" width="451.831" height="202.49" filterUnits="userSpaceOnUse" color-interpolation-filters="sRGB">
<feFlood flood-opacity="0" result="BackgroundImageFix"/>
<feColorMatrix in="SourceAlpha" type="matrix" values="0 0 0 0 0 0 0 0 0 0 0 0 0 0 0 0 0 0 127 0" result="hardAlpha"/>
<feOffset dy="-0.19481"/>
<feGaussianBlur stdDeviation="10.355"/>
<feColorMatrix type="matrix" values="0 0 0 0 1 0 0 0 0 0.121569 0 0 0 0 0.490196 0 0 0 0.0112458 0"/>
<feBlend mode="normal" in2="BackgroundImageFix" result="effect1_dropShadow_719_620"/>
<feColorMatrix in="SourceAlpha" type="matrix" values="0 0 0 0 0 0 0 0 0 0 0 0 0 0 0 0 0 0 127 0" result="hardAlpha"/>
<feOffset dy="-0.468156"/>
<feGaussianBlur stdDeviation="17.0766"/>
<feColorMatrix type="matrix" values="0 0 0 0 1 0 0 0 0 0.121569 0 0 0 0 0.490196 0 0 0 0.0161557 0"/>
<feBlend mode="normal" in2="effect1_dropShadow_719_620" result="effect2_dropShadow_719_620"/>
<feColorMatrix in="SourceAlpha" type="matrix" values="0 0 0 0 0 0 0 0 0 0 0 0 0 0 0 0 0 0 127 0" result="hardAlpha"/>
<feOffset dy="-0.881495"/>
<feGaussianBlur stdDeviation="19.9232"/>
<feColorMatrix type="matrix" values="0 0 0 0 1 0 0 0 0 0.121569 0 0 0 0 0.490196 0 0 0 0.02 0"/>
<feBlend mode="normal" in2="effect2_dropShadow_719_620" result="effect3_dropShadow_719_620"/>
<feColorMatrix in="SourceAlpha" type="matrix" values="0 0 0 0 0 0 0 0 0 0 0 0 0 0 0 0 0 0 127 0" result="hardAlpha"/>
<feOffset dy="-1.57244"/>
<feGaussianBlur stdDeviation="19.6802"/>
<feColorMatrix type="matrix" values="0 0 0 0 1 0 0 0 0 0.121569 0 0 0 0 0.490196 0 0 0 0.0238443 0"/>
<feBlend mode="normal" in2="effect3_dropShadow_719_620" result="effect4_dropShadow_719_620"/>
<feColorMatrix in="SourceAlpha" type="matrix" values="0 0 0 0 0 0 0 0 0 0 0 0 0 0 0 0 0 0 127 0" result="hardAlpha"/>
<feOffset dy="-2.94107"/>
<feGaussianBlur stdDeviation="21.2218"/>
<feColorMatrix type="matrix" values="0 0 0 0 1 0 0 0 0 0.121569 0 0 0 0 0.490196 0 0 0 0.0287542 0"/>
<feBlend mode="normal" in2="effect4_dropShadow_719_620" result="effect5_dropShadow_719_620"/>
<feColorMatrix in="SourceAlpha" type="matrix" values="0 0 0 0 0 0 0 0 0 0 0 0 0 0 0 0 0 0 127 0" result="hardAlpha"/>
<feOffset dy="-7.03982"/>
<feGaussianBlur stdDeviation="40.2276"/>
<feColorMatrix type="matrix" values="0 0 0 0 1 0 0 0 0 0.121569 0 0 0 0 0.490196 0 0 0 0.04 0"/>
<feBlend mode="normal" in2="effect5_dropShadow_719_620" result="effect6_dropShadow_719_620"/>
<feBlend mode="normal" in="SourceGraphic" in2="effect6_dropShadow_719_620" result="shape"/>
</filter>
</defs>
</svg>
