<svg width="39" height="39" viewBox="0 0 39 39" fill="none" xmlns="http://www.w3.org/2000/svg">
<path d="M34.6667 34.6667H39V39H34.6667V34.6667Z" fill="#FF1F7D"/>
<path d="M30.3333 30.3333H34.6667V34.6667H30.3333V30.3333Z" fill="#FF1F7D"/>
<path d="M26 26H30.3333V30.3333H26V26Z" fill="#FF1F7D"/>
<path d="M17.3333 26H21.6667V30.3333H17.3333V26Z" fill="#FF1F7D"/>
<path d="M13 26H17.3333V30.3333H13V26Z" fill="#FF1F7D"/>
<path d="M8.66667 26H13V30.3333H8.66667V26Z" fill="#FF1F7D"/>
<path d="M4.33333 21.6667H8.66667V26H4.33333V21.6667Z" fill="#FF1F7D"/>
<path d="M0 17.3333H4.33333V21.6667H0V17.3333Z" fill="#FF1F7D"/>
<path d="M0 13H4.33333V17.3333H0V13Z" fill="#FF1F7D"/>
<path d="M0 8.66667H4.33333V13H0V8.66667Z" fill="#FF1F7D"/>
<path d="M4.33333 4.33333H8.66667V8.66667H4.33333V4.33333Z" fill="#FF1F7D"/>
<path d="M8.66667 0H13V4.33333H8.66667V0Z" fill="#FF1F7D"/>
<path d="M13 0H17.3333V4.33333H13V0Z" fill="#FF1F7D"/>
<path d="M17.3333 0H21.6667V4.33333H17.3333V0Z" fill="#FF1F7D"/>
<path d="M21.6667 4.33333H26V8.66667H21.6667V4.33333Z" fill="#FF1F7D"/>
<path d="M26 8.66667H30.3333V13H26V8.66667Z" fill="#FF1F7D"/>
<path d="M26 13H30.3333V17.3333H26V13Z" fill="#FF1F7D"/>
<path d="M26 17.3333H30.3333V21.6667H26V17.3333Z" fill="#FF1F7D"/>
<path d="M21.6667 21.6667H26V26H21.6667V21.6667Z" fill="#FF1F7D"/>
</svg>
